<svg width="24" height="24" viewBox="0 0 24 25" fill="none" xmlns="http://www.w3.org/2000/svg">
<g clip-path="url(#clip0_50_1162)">
<path d="M6.57413 10.5H17.3932L13.37 4.68336L15.0022 3.5L19.8439 10.5H21C21.5523 10.5 22 10.9477 22 11.5C22 12.0523 21.5523 12.5 21 12.5L17.5279 20.3123C17.2069 21.0345 16.4906 21.5 15.7003 21.5H8.29975C7.50937 21.5 6.79313 21.0345 6.47212 20.3123L3 12.5C2.44772 12.5 2 12.0523 2 11.5C2 10.9477 2.44772 10.5 3 10.5H4.11632L9 3.5L10.6275 4.69017L6.57413 10.5ZM5.19 12.5L8.3 19.5H15.6963L18.81 12.5H5.19Z" fill="#3F2A2D"/>
</g>
<defs>
<clipPath id="clip0_50_1162">
<rect width="24" height="24" fill="white" transform="translate(0 0.5)"/>
</clipPath>
</defs>
</svg>
